<svg width="300" height="200" viewBox="0 0 300 200" fill="none" xmlns="http://www.w3.org/2000/svg">
<path d="M0.599457 199.797C100.341 199.374 200.107 199.186 299.848 199.797" stroke="#333333" stroke-width="0.1" stroke-miterlimit="10"/>
<path d="M0.599457 195.82C29.475 193.889 58.7933 193.231 87.7088 194.755C99.5191 195.377 111.361 195.684 123.176 195.03C136.059 194.316 148.325 191.468 161.037 189.728C183.644 186.633 206.566 193.905 229.078 195.118C252.79 196.398 276.076 193.071 299.848 196.103" stroke="#333333" stroke-width="0.1" stroke-miterlimit="10"/>
<path d="M0.599457 191.376C30.5922 188.061 61.6781 187.455 91.7426 190.431C103.796 191.623 115.95 192.254 128.024 190.989C142.272 189.501 154.637 184.02 168.346 180.674C191.245 175.085 213.852 188.656 236.332 190.861C246.199 191.831 255.966 189.713 265.81 189.078C277.448 188.324 288.553 189.525 299.848 192.409" stroke="#333333" stroke-width="0.1" stroke-miterlimit="10"/>
<path d="M0.599457 186.557C31.5138 182.078 63.298 182.628 94.2364 186.781C106.41 188.412 118.591 189.31 130.793 187.419C137.141 186.434 143.333 184.778 149.39 182.644C157.625 179.744 165.218 174.415 173.386 171.751C196.308 164.271 218.061 183.354 239.799 186.765C249.774 188.328 258.875 185.085 268.702 183.965C279.647 182.716 289.614 184.854 299.852 188.719" stroke="#333333" stroke-width="0.1" stroke-miterlimit="10"/>
<path d="M0.599457 181.436C30.8635 176.134 61.7818 177.794 91.9381 183.159C105.025 185.488 118.132 187.024 131.299 184.352C148.017 180.957 160.346 170.909 175.652 164.487C200.474 154.072 220.24 179.337 243.394 183.179C252.535 184.695 260.072 180.825 268.822 179.138C280.054 176.972 289.757 180.159 299.848 185.03" stroke="#333333" stroke-width="0.1" stroke-miterlimit="10"/>
<path d="M0.599457 176.094C30.8874 169.88 60.5968 173.558 90.4379 180.287C103.565 183.247 116.728 184.866 129.971 181.591C136.845 179.892 143.341 177.12 149.613 173.865C159.002 168.994 167.309 160.857 176.729 156.505C202.05 144.805 220.116 174.307 242.64 179.206C252.89 181.436 259.709 176.537 269.161 174.132C280.397 171.276 290.192 175.883 299.848 181.336" stroke="#333333" stroke-width="0.1" stroke-miterlimit="10"/>
<path d="M0.599457 170.618C30.2889 163.569 57.5205 169.453 86.2883 177.283C99.6468 180.917 112.997 183.115 126.599 179.345C133.797 177.351 140.496 174.064 146.928 170.319C157.007 164.451 165.701 155.097 175.847 149.776C202.497 135.803 218.301 170.063 241.331 175.52C252.156 178.085 258.496 172.205 268.136 169.17C279.802 165.496 290.172 171.599 299.844 177.642" stroke="#333333" stroke-width="0.1" stroke-miterlimit="10"/>
<path d="M0.599457 165.081C28.9523 157.271 53.0318 164.985 79.9004 173.817C93.2269 178.197 106.518 181.475 120.407 177.885C141.538 172.425 155.311 155.807 173.07 144.61C201.91 126.432 214.762 166.912 239.923 172.066C250.815 174.299 256.976 167.355 266.604 164C278.797 159.752 290.053 167.403 299.848 173.94" stroke="#333333" stroke-width="0.1" stroke-miterlimit="10"/>
<path d="M0.599457 159.572C28.1104 150.689 49.2334 160.673 74.4979 170.57C88.1397 175.911 101.937 180.243 116.473 175.827C138.022 169.281 152.067 151.451 169.882 139.049C200.17 117.968 210.113 163.015 236.128 168.312C247.2 170.566 254.035 162.859 263.515 159.098C276.906 153.784 289.199 162.827 299.848 170.259" stroke="#333333" stroke-width="0.1" stroke-miterlimit="10"/>
<path d="M0.599457 154.163C12.9245 149.468 24.9543 148.387 37.7023 152.177C49.4728 155.675 59.5794 162.74 70.6875 167.738C83.8066 173.641 97.2847 178.819 111.641 174.116C134.443 166.645 148.169 146.357 166.778 132.899C196.911 111.103 205.677 157.562 230.414 163.829C242.939 167 250.197 157.805 260.846 153.601C275.238 147.917 288.684 158.527 299.848 166.565" stroke="#333333" stroke-width="0.1" stroke-miterlimit="10"/>
<path d="M0.599457 148.942C11.6916 143.92 22.7439 142.356 34.4584 146.281C45.9975 150.147 55.3699 158.284 65.9993 163.916C78.3642 170.47 91.0883 177.048 105.317 172.851C129.173 165.823 144.147 143.038 162.661 128.295C194.229 103.153 199.468 153.713 225.331 159.532C238.602 162.52 246.865 151.858 258.261 147.701C273.59 142.113 288.293 154.323 299.844 162.867" stroke="#333333" stroke-width="0.1" stroke-miterlimit="10"/>
<path d="M0.599457 143.984C26.2351 130.222 41.6324 146.501 62.512 159.656C74.3702 167.127 87.1382 175.771 101.67 170.961C125.203 163.17 140.684 139.747 158.523 124.171C170.038 114.119 181.062 111.785 190.926 124.502C199.48 135.527 204.974 151.407 220.196 154.602C233.451 157.382 242.811 146.469 254.183 142.021C270.917 135.471 287.483 149.792 299.848 159.177" stroke="#333333" stroke-width="0.1" stroke-miterlimit="10"/>
<path d="M0.599457 139.373C25.4291 123.772 40.9023 139.971 60.4851 154.674C70.9309 162.516 82.7572 173.378 96.8698 169.696C105.46 167.455 113.077 161.084 119.637 155.46C132.245 144.654 142.711 131.905 154.681 120.489C166.156 109.543 177.467 105.235 187.307 119.675C194.64 130.437 200.266 147.063 215.009 149.413C229.026 151.646 239.284 139.624 251.577 135.467C269.309 129.468 287.184 145.591 299.848 155.476" stroke="#333333" stroke-width="0.1" stroke-miterlimit="10"/>
<path d="M0.599457 135.192C10.2792 128.232 20.9603 123.864 32.7547 128.104C43.2564 131.881 51.4199 140.657 59.4916 147.969C68.5888 156.21 80.0799 170.841 94.0448 167.965C101.905 166.346 108.82 160.33 114.693 155.209C127.656 143.9 139.02 130.8 150.675 118.199C161.583 106.4 173.673 97.9118 183.847 114.334C190.698 125.387 196.017 142.871 211.554 143.485C225.343 144.032 235.705 133.022 248.134 128.962C267.198 122.735 286.538 141.036 299.852 151.786" stroke="#333333" stroke-width="0.1" stroke-miterlimit="10"/>
<path d="M0.599457 131.355C10.5345 123.616 21.6027 118.479 34.1512 122.938C44.7406 126.7 53.5106 135.276 61.339 142.987C69.4785 151.008 80.4031 166.764 93.7296 164.076C101.187 162.572 107.746 156.545 113.245 151.654C125.817 140.466 137.045 127.709 148.404 115.331C158.806 103.999 171.024 93.6677 181.342 110.014C188.093 120.708 193.22 137.777 208.466 137.988C222.135 138.176 233.535 128.256 246.299 124.857C266.165 119.564 285.58 136.915 299.848 148.001" stroke="#333333" stroke-width="0.1" stroke-miterlimit="10"/>
<path d="M0.599457 127.079C11.5599 118.459 23.2546 113.824 36.6529 119.807C47.7331 124.757 57.4368 134.123 66.0112 142.416C73.7039 149.859 83.236 162.42 95.3655 158.507C102.767 156.118 109.203 149.736 114.725 144.606C125.793 134.327 136.079 123.194 146.521 112.288C156.472 101.889 168.546 91.7729 179.243 106.273C186.852 116.588 191.696 133.086 206.886 133.84C220.416 134.51 233.499 125.587 246.542 123.194C266.268 119.572 284.614 133.166 299.852 143.641" stroke="#333333" stroke-width="0.1" stroke-miterlimit="10"/>
<path d="M0.599457 122.328C12.3859 113.337 24.3957 109.384 38.1651 116.484C48.7147 121.921 58.4502 130.677 67.1284 138.667C75.2161 146.114 85.1472 158.946 97.3685 153.266C103.748 150.302 108.999 144.658 114.011 139.883C124.552 129.831 134.523 119.173 144.817 108.873C155.467 98.219 167.532 89.9579 178.581 104.123C186.186 113.875 191.664 129.229 206.084 129.867C219.35 130.457 232.529 124.103 245.477 121.989C265.462 118.726 283.206 128.914 299.852 138.73" stroke="#333333" stroke-width="0.1" stroke-miterlimit="10"/>
<path d="M0.599457 117.19C14.1933 107.385 27.1608 105.168 41.6364 114.29C52.0383 120.844 61.6542 129.723 70.9628 137.729C78.7353 144.414 87.4773 154.909 98.354 148.83C104.179 145.575 109.027 139.771 113.668 135.076C123.547 125.076 133.167 114.833 143.333 105.12C153.867 95.0557 165.924 87.7919 177.136 100.509C185.507 110.002 191.305 125.144 205.689 126.516C218.365 127.725 232.178 122.771 244.647 120.84C264.573 117.757 282.105 124.797 299.844 133.393" stroke="#333333" stroke-width="0.1" stroke-miterlimit="10"/>
<path d="M0.599457 111.761C15.3265 101.857 28.8685 100.796 43.6274 111.159C54.7635 118.977 64.7703 128.858 75.3598 137.426C82.6415 143.314 90.6973 151.387 99.7984 144.622C105.815 140.15 110.727 133.413 115.722 127.924C124.169 118.65 132.827 109.5 142.12 101.067C153.508 90.7318 165.857 85.8494 177.324 98.3068C185.719 107.425 192.151 121.658 205.944 123.202C218.999 124.661 233.116 121.235 246.047 119.46C265.063 116.851 281.989 121.099 299.848 127.709" stroke="#333333" stroke-width="0.1" stroke-miterlimit="10"/>
<path d="M0.599457 106.125C17.3893 95.6302 31.6615 96.7471 47.0748 109.049C58.7694 118.383 68.7364 129.245 80.9258 138.052C89.2888 144.091 95.3177 147.502 102.95 139.085C115.922 124.781 126.428 108.478 141.625 96.1447C152.781 87.0939 165.055 83.7193 176.171 94.254C185.563 103.153 191.883 116.815 205.441 120.022C217.958 122.978 233.666 120.062 246.251 118.347C264.824 115.814 281.586 117.302 299.852 121.801" stroke="#333333" stroke-width="0.1" stroke-miterlimit="10"/>
<path d="M0.599457 100.377C19.4003 89.4114 34.7098 92.9735 50.562 107.011C61.9175 117.067 71.3618 128.71 84.2494 136.971C93.7097 143.038 98.6892 144.111 105.161 134.45C115.415 119.145 125.737 103.5 140.676 92.2117C152.753 83.081 164.991 81.0307 176.793 91.5575C186.62 100.325 193.615 114.43 207.512 117.533C219.837 120.286 234.221 118.977 246.646 117.286C264.684 114.829 281.63 113.72 299.852 115.75" stroke="#333333" stroke-width="0.1" stroke-miterlimit="10"/>
<path d="M0.599457 94.609C21.092 83.3004 37.1238 88.8729 53.367 104.346C64.8621 115.295 74.3383 128.67 88.4908 136.433C98.9964 142.197 102.683 139.201 107.695 129.32C115.667 113.608 125.749 97.7283 140.516 87.4927C153.017 78.8248 165.661 78.5576 177.404 88.5179C187.646 97.2097 195.107 110.948 208.829 114.801C238.259 123.066 270.286 110.712 299.852 109.687" stroke="#333333" stroke-width="0.1" stroke-miterlimit="10"/>
<path d="M0.599457 88.9088C10.7939 83.4799 20.3778 80.2569 31.7852 84.2099C41.2215 87.4808 48.9501 94.3457 55.8727 101.338C67.292 112.882 77.0555 128.415 92.2693 135.276C103.681 140.422 106.382 133.489 110.232 123.816C116.508 108.036 125.985 91.8686 140.791 82.6303C173.062 62.4902 184.709 103.241 210.385 112.076C240.369 122.396 270.53 109.376 299.852 103.7" stroke="#333333" stroke-width="0.1" stroke-miterlimit="10"/>
<path d="M0.599457 83.3682C11.2328 77.7439 21.0322 74.6086 32.647 78.8807C42.3905 82.4627 50.2668 89.7824 57.325 97.1978C68.4252 108.857 79.9043 129.041 96.4628 133.684C108.054 136.935 109.881 126.093 112.818 117.366C117.957 102.088 126.815 85.243 141.633 77.1615C172.396 60.3841 187.889 98.1072 211.115 108.77C241.586 122.759 271.092 108.415 299.848 97.8918" stroke="#333333" stroke-width="0.1" stroke-miterlimit="10"/>
<path d="M0.599457 78.0829C11.3365 72.2431 21.0082 69.0719 32.8265 73.2084C42.6259 76.6389 50.6338 84.2936 57.6003 91.7529C68.904 103.859 81.0215 126.855 98.5974 130.286C110.543 132.619 112.219 120.688 114.829 111.729C119.309 96.3601 127.377 79.3474 142.862 72.1993C173.669 57.9788 190.283 94.1941 213.006 105.906C224.836 112.001 240.154 115.124 253.333 113.002C270.039 110.313 285.317 100.417 299.852 92.3871" stroke="#333333" stroke-width="0.1" stroke-miterlimit="10"/>
<path d="M0.599457 73.1367C12.0347 66.527 23.087 62.7176 35.7472 68.4297C45.2474 72.7178 52.7844 80.5999 59.5953 88.2506C69.8017 99.7148 82.6654 123.868 99.8343 125.679C112.758 127.043 114.39 112.934 117.159 103.408C121.44 88.6854 129.149 72.9013 144.666 67.2211C175.241 56.0242 192.921 89.5989 214.981 102.718C226.129 109.348 240.701 113.887 253.74 112.264C271.208 110.086 286.326 97.4491 299.844 87.2574" stroke="#333333" stroke-width="0.1" stroke-miterlimit="10"/>
<path d="M0.599457 68.6253C11.3963 61.7484 22.0257 56.9617 34.7816 62.1114C45.004 66.2399 53.1435 75.0035 60.1659 83.1928C70.2047 94.9002 82.829 118.937 100.664 119.36C113.38 119.659 115.734 105.347 118.735 95.7898C123.375 81.0228 130.713 66.6986 146.988 62.5222C178.154 54.5205 195.458 85.2191 217.758 99.9462C228.675 107.158 243.234 113.106 256.533 111.187C273.925 108.674 287.898 94.2221 299.848 82.6303" stroke="#333333" stroke-width="0.1" stroke-miterlimit="10"/>
<path d="M0.599457 64.6403C10.5106 57.4563 20.8047 51.437 33.4091 55.6573C43.2324 58.9441 50.969 66.9938 57.5804 74.6285C68.4092 87.1298 79.3019 109.368 97.9431 110.788C112.115 111.865 115.798 98.0953 119.876 87.2016C125.438 72.3389 133.191 59.7539 150.224 57.4523C180.42 53.3716 197.82 79.3275 218.8 95.6661C229.317 103.855 243.557 111.697 257.319 110.357C275.573 108.578 289.007 91.6093 299.848 78.6015" stroke="#333333" stroke-width="0.1" stroke-miterlimit="10"/>
<path d="M0.599457 61.497C10.4627 54.6162 20.6332 48.9519 32.9861 52.9727C42.606 56.104 50.2628 63.7986 56.7944 71.202C67.316 83.1209 78.452 106.001 96.5585 106.628C110.559 107.11 115.351 94.7127 120.371 83.815C126.807 69.8498 135.517 57.0653 152.035 54.8355C181.174 50.9025 199.376 75.1511 220.056 90.6599C230.203 98.2668 244.515 106.005 257.546 105.75C275.765 105.391 289.259 88.0672 299.848 75.4223" stroke="#333333" stroke-width="0.1" stroke-miterlimit="10"/>
<path d="M0.599457 59.347C10.3071 52.7055 20.3299 47.1968 32.4395 50.8586C41.796 53.6867 49.3411 60.8907 55.7689 67.9431C66.1229 79.3075 77.2111 101.949 94.7311 102.056C108.469 102.14 114.318 91.2104 120.315 80.564C127.64 67.5602 137.256 55.0829 153.188 52.8969C181.274 49.0476 200.246 70.7952 220.938 85.2709C230.985 92.2994 245.141 100.142 257.574 101.251C275.701 102.866 289.414 85.3707 299.844 73.1805" stroke="#333333" stroke-width="0.1" stroke-miterlimit="10"/>
<path d="M0.599457 58.0147C9.91208 51.6524 19.8671 46.1517 31.4979 49.1035C41.413 51.6165 49.2892 59.1117 56.0403 66.3675C66.3025 77.3968 76.5927 97.8839 93.7376 97.122C106.709 96.5476 113.32 86.703 120.095 77.0139C128.415 65.111 138.457 53.95 153.691 51.788C181.354 47.859 200.733 66.6587 222.255 80.0694C232.198 86.2682 244.814 93.6197 256.27 96.5835C274.839 101.386 288.979 83.9905 299.848 71.7047" stroke="#333333" stroke-width="0.1" stroke-miterlimit="10"/>
<path d="M0.599457 57.3286C9.65672 51.0621 19.4003 45.4417 30.8395 47.7672C40.3636 49.7058 48.1042 56.3753 54.7395 63.0727C65.1454 73.5715 74.8331 92.4271 91.4434 91.6891C104.044 91.1307 111.621 82.8417 119.329 73.9105C128.566 63.2123 139.227 53.0485 153.875 50.9185C180.368 47.0652 200.669 62.0954 222.442 74.0541C233.247 79.9896 244.611 87.2455 255.954 92.0481C274.216 99.7826 288.572 83.0451 299.844 70.8351" stroke="#333333" stroke-width="0.1" stroke-miterlimit="10"/>
<path d="M0.599457 57.1172C19.6556 43.6107 36.1382 43.6785 53.4428 59.694C64.0681 69.5267 73.0974 86.4037 89.1252 85.8293C101.315 85.3906 109.789 78.6732 118.38 70.7872C128.502 61.497 139.654 52.51 153.719 50.4198C178.964 46.6662 200.338 57.536 222.307 67.8473C234.4 73.5236 244.184 80.6438 255.448 87.5486C273.235 98.4503 287.755 82.8855 299.852 70.4202" stroke="#333333" stroke-width="0.1" stroke-miterlimit="10"/>
<path d="M0.599457 57.209C18.3349 44.2211 34.658 41.7001 52.2219 56.1559C63.1265 65.131 71.5254 79.8341 86.9028 79.5309C112.506 79.0283 128.275 53.958 153.3 50.1765C177.272 46.5546 199.791 52.9768 221.84 61.4851C235.318 66.6866 243.805 74.0542 254.737 83.0412C271.886 97.138 286.462 83.3483 299.848 70.2767" stroke="#333333" stroke-width="0.1" stroke-miterlimit="10"/>
<path d="M0.599457 57.4323C16.8187 45.0747 33.0141 39.8412 50.7296 52.0832C61.6821 59.6501 69.7139 72.295 83.8664 72.7816C109.315 73.6632 128.251 53.7346 152.674 49.9252C174.958 46.4508 198.774 48.3775 220.272 54.8236C235.578 59.4148 243.394 67.7636 254.183 78.9086C258.213 83.073 262.745 87.409 268.798 88.0632C280.84 89.3596 292.104 77.4287 299.848 70.2646" stroke="#333333" stroke-width="0.1" stroke-miterlimit="10"/>
<path d="M0.599457 57.6159C15.6896 45.6571 31.8091 38.0582 49.9196 48.0704C61.1235 54.2652 68.9159 64.78 82.2784 65.5578C107.14 67.0058 128.083 53.6868 151.999 49.9731C173.453 46.6424 197.764 43.8661 219.191 48.4613C235.673 51.9955 243.087 61.8521 253.078 74.4491C256.904 79.2756 261.237 84.8282 267.561 86.344C279.779 89.2719 291.832 77.2373 299.844 70.2208" stroke="#333333" stroke-width="0.1" stroke-miterlimit="10"/>
<path d="M0.599457 57.5839C15.3265 45.4577 31.6934 36.0718 50.6538 44.1613C60.9918 48.573 68.6845 56.6585 80.1876 57.7834C104.91 60.2047 127.389 53.6349 151.529 50.0928C164.249 48.226 176.781 46.3751 189.393 43.8342C199.197 41.8597 208.725 40.8345 218.692 42.2625C235.913 44.7277 243.186 57.0295 252.116 70.4322C255.691 75.7973 259.988 82.4588 266.484 84.5929C278.933 88.6855 291.349 77.0379 299.848 69.9655" stroke="#333333" stroke-width="0.1" stroke-miterlimit="10"/>
<path d="M0.599457 57.169C14.7838 45.1146 31.1587 33.9456 50.5461 39.1112C60.8243 41.8516 69.1194 48.2259 79.8006 49.5741C104.167 52.6456 126.743 53.3437 151.09 49.9531C163.981 48.1581 176.067 45.5134 188.364 41.2533C197.832 37.9744 206.917 35.2859 217.068 36.0039C235.143 37.2803 242.484 51.8119 250.644 65.9247C254.119 71.936 258.316 79.6705 265.052 82.5944C277.74 88.103 290.815 76.5272 299.856 69.3591" stroke="#333333" stroke-width="0.1" stroke-miterlimit="10"/>
<path d="M0.599457 56.1998C14.5843 44.0336 30.8954 31.6082 50.5141 33.4909C61.0477 34.5001 70.6875 39.4783 81.1452 41.018C105.049 44.5402 126.076 52.5779 150.631 49.5822C163.622 47.9946 175.297 44.604 187.003 38.8042C195.821 34.4363 204.224 30.0166 214.327 29.889C233.966 29.6496 241.383 46.7979 249.291 61.9239C252.706 68.4577 256.812 76.9581 263.771 80.4604C276.682 86.9623 290.296 75.5101 299.848 68.2224" stroke="#333333" stroke-width="0.1" stroke-miterlimit="10"/>
<path d="M0.599457 54.5044C14.8716 41.9434 31.2266 28.7082 51.0368 27.3998C61.718 26.6938 72.9618 29.8689 83.3557 32.0229C106.733 36.8655 126.196 51.5965 151.022 48.916C163.786 47.5398 175.057 43.3874 185.759 36.3828C194.393 30.7305 202.305 24.6714 213.026 24.0451C233.092 22.8764 240.441 42.793 247.763 57.907C251.242 65.083 255.236 73.7629 262.41 78.0111C275.294 85.6379 290.149 73.5874 299.848 66.4074" stroke="#333333" stroke-width="0.1" stroke-miterlimit="10"/>
<path d="M0.599457 51.9037C25.0221 30.4593 50.7615 13.9253 84.01 21.9589C107.679 27.679 125.909 49.9252 151.588 47.827C164.6 46.762 175.56 41.5405 185.459 33.2715C193.212 26.7975 200.119 19.6972 210.696 18.5524C230.869 16.3705 238.263 36.7698 245.177 51.8638C248.952 60.1009 253.038 70.4043 261.229 75.3106C274.436 83.2206 289.773 71.0664 299.844 63.7428" stroke="#333333" stroke-width="0.1" stroke-miterlimit="10"/>
<path d="M0.599457 48.3696C24.1005 28.2974 54.3325 6.09509 87.21 15.3015C110.288 21.7635 127.724 46.3711 153.089 45.0707C165.773 44.4205 176.55 38.3454 185.503 29.7374C192.605 22.9123 198.953 15.2137 209.399 14.057C228.751 11.9069 236.627 32.043 243.446 46.3592C247.527 54.9233 251.805 65.4062 260.2 70.6756C273.642 79.1121 289.167 67.5921 299.844 60.1568" stroke="#333333" stroke-width="0.1" stroke-miterlimit="10"/>
<path d="M0.599457 44.6758C24.1842 25.4572 55.1465 4.2362 87.5053 12.206C111.29 18.0618 130.13 42.4819 155.882 40.8105C167.552 40.0526 177.332 34.3844 185.527 26.3906C192.067 20.0123 197.8 12.7445 207.348 11.1849C226.393 8.07353 235.801 28.7161 243.19 42.4061C247.436 50.2642 252.04 59.3709 259.745 64.4408C273.219 73.3082 288.381 63.4915 299.848 56.112" stroke="#333333" stroke-width="0.1" stroke-miterlimit="10"/>
<path d="M0.599457 40.982C24.6311 22.4416 57.1016 1.93856 89.221 10.1079C112.574 16.0473 132.564 38.3374 157.765 36.9692C168.51 36.3868 177.918 30.6627 185.431 23.379C191.452 17.5432 196.811 10.5905 205.461 8.7596C224.206 4.79462 234.987 25.5968 243.15 38.5847C248.058 46.391 253.189 54.9831 261.616 59.3988C274.951 66.3834 288.213 58.6728 299.848 51.768" stroke="#333333" stroke-width="0.1" stroke-miterlimit="10"/>
<path d="M0.599457 37.2883C25.4012 19.3262 58.6617 0.462682 90.7491 8.40859C113.879 14.1367 134.719 34.7753 159.532 33.08C169.527 32.3979 178.07 27.3759 185.212 20.6625C191.217 15.0182 196.611 8.13735 205.19 6.55375C223.013 3.25891 234.624 22.7926 243.322 34.895C248.314 41.8397 253.604 48.924 261.213 53.1323C274.452 60.4479 287.794 53.7505 299.848 47.1768" stroke="#333333" stroke-width="0.1" stroke-miterlimit="10"/>
<path d="M0.599457 33.5946C25.5728 16.7813 57.7959 0.55042 89.1092 6.45002C113.344 11.0173 135.245 31.265 160.698 29.482C170.349 28.8039 178.569 23.8816 185.599 17.5551C191.349 12.3775 196.571 6.41013 204.539 4.90631C221.034 1.79097 233.315 18.6162 242.38 29.6096C248.314 36.8096 254.797 44.7116 263.675 48.3934C276.227 53.5989 288.584 48.0384 299.852 42.3981" stroke="#333333" stroke-width="0.1" stroke-miterlimit="10"/>
<path d="M0.599457 29.9009C26.1952 14.0809 59.0846 -0.434762 90.1067 5.49675C113.755 10.0202 136.734 27.9862 161.468 26.1633C179.43 24.839 187.271 7.23591 203.462 3.66983C219.741 0.0877857 232.996 15.9397 243.003 26.1992C249.02 32.37 255.3 38.852 263.424 42.2027C276 47.3883 288.205 42.7891 299.844 37.4838" stroke="#333333" stroke-width="0.1" stroke-miterlimit="10"/>
<path d="M0.599457 26.2072C26.8695 11.524 59.1365 -0.39484 89.8673 4.54742C113.707 8.38076 137.109 24.6675 161.795 22.8206C178.752 21.5521 187.817 5.73612 203.47 2.66864C218.732 -0.31905 231.863 12.266 242.345 21.4604C248.816 27.1406 255.476 33.1 263.627 36.2553C276.112 41.0898 288.054 37.3801 299.852 32.5017" stroke="#333333" stroke-width="0.1" stroke-miterlimit="10"/>
<path d="M0.599457 22.5134C27.2645 9.30208 59.1724 -0.454794 89.3486 3.84525C113.205 7.2438 137.161 21.3326 161.643 19.5576C177.914 18.3769 188.44 4.655 203.805 1.86276C218.963 -0.893575 232.769 10.4788 244.104 18.7877C250.261 23.2992 256.677 27.8625 263.938 30.4313C276.455 34.859 287.878 31.9391 299.848 27.5035" stroke="#333333" stroke-width="0.1" stroke-miterlimit="10"/>
<path d="M0.599457 18.8197C27.5478 7.29974 59.0088 -0.414812 88.5905 3.23903C112.487 6.19082 136.666 17.9701 161.017 16.3586C176.997 15.3015 189.214 3.8254 204.631 1.32435C218.859 -0.981237 232.274 7.6029 243.917 14.5915C262.841 25.9519 278.458 29.5379 299.848 22.5374" stroke="#333333" stroke-width="0.1" stroke-miterlimit="10"/>
<path d="M0.599457 15.126C27.7074 5.50075 57.5485 0.199489 86.416 2.63671C110.811 4.69898 135.07 14.3282 159.716 13.0916C176.246 12.262 190.411 2.47317 206.682 0.813781C220.124 -0.558404 232.812 5.54862 244.639 11.1331C263.607 20.0962 279.244 23.4788 299.848 17.6749" stroke="#333333" stroke-width="0.1" stroke-miterlimit="10"/>
<path d="M0.599457 11.4322C28.1942 3.78147 57.6562 0.219369 86.3083 2.24972C110.22 3.94501 134.224 11.0652 158.296 10.0321C175.201 9.30611 190.977 2.11809 207.751 0.642193C221.868 -0.598358 235.123 4.32396 248.25 8.86334C265.881 14.9624 281.418 17.2321 299.848 12.9719" stroke="#333333" stroke-width="0.1" stroke-miterlimit="10"/>
<path d="M0.599457 7.74248C27.7912 2.47712 55.9605 0.398895 83.6549 1.63546C107.77 2.71246 131.858 7.43533 156.041 6.79711C174.555 6.31046 192.617 1.37618 211.091 0.414851C224.274 -0.271242 237.018 2.76432 249.774 5.71212C266.763 9.63721 282.512 11.4641 299.848 8.47644" stroke="#333333" stroke-width="0.1" stroke-miterlimit="10"/>
<path d="M0.599457 4.04869C27.5757 1.25645 54.8273 0.398835 81.9432 1.00914C105.783 1.54764 129.612 3.92104 153.472 3.60193C173.765 3.33068 193.954 0.793738 214.239 0.291135C243.011 -0.42288 270.989 7.15605 299.848 4.25212" stroke="#333333" stroke-width="0.1" stroke-miterlimit="10"/>
<path d="M0.599457 0.355015C100.345 -0.195455 200.103 0.957341 299.848 0.355015" stroke="#333333" stroke-width="0.1" stroke-miterlimit="10"/>
</svg>
